# xmcd
# 
# Track frame offsets:
#     150
#     18975
#     47287
# 
# Disc length: 970
# 
# Revision: 1
# Processed by: cddbd v1.5.2PL0 Copyright (c) Steve Scherf et al.
# Submitted via: fre:ac v1.0.17
# 
DISCID=1503c803
DTITLE=Luther Vandross - When you call on me
DYEAR=1997
DGENRE=Ballad
TTITLE0=When you call on me (Radio Edit)22
TTITLE1=Here and now (Live)22
TTITLE2=I can make it better22
EXTD=
EXTT0=
EXTT1=
EXTT2=
PLAYORDER=
